<?xml version="1.0" encoding="UTF-8" standalone="no"?>
<!-- Created with Inkscape (http://www.inkscape.org/) -->

<svg
   width="52.534584mm"
   height="52.529999mm"
   viewBox="0 0 52.534584 52.529999"
   version="1.1"
   id="svg5"
   inkscape:version="1.1.2 (0a00cf5339, 2022-02-04)"
   sodipodi:docname="canary.svg"
   inkscape:export-filename="/home/me/canary.png"
   inkscape:export-xdpi="96"
   inkscape:export-ydpi="96"
   xmlns:inkscape="http://www.inkscape.org/namespaces/inkscape"
   xmlns:sodipodi="http://sodipodi.sourceforge.net/DTD/sodipodi-0.dtd"
   xmlns="http://www.w3.org/2000/svg"
   xmlns:svg="http://www.w3.org/2000/svg">
  <sodipodi:namedview
     id="namedview7"
     pagecolor="#ffffff"
     bordercolor="#666666"
     borderopacity="1.0"
     inkscape:pageshadow="2"
     inkscape:pageopacity="0.0"
     inkscape:pagecheckerboard="0"
     inkscape:document-units="mm"
     showgrid="false"
     fit-margin-top="0"
     fit-margin-left="0"
     fit-margin-right="0"
     fit-margin-bottom="3"
     inkscape:zoom="4.1776836"
     inkscape:cx="85.334371"
     inkscape:cy="80.427345"
     inkscape:window-width="2560"
     inkscape:window-height="1372"
     inkscape:window-x="0"
     inkscape:window-y="0"
     inkscape:window-maximized="1"
     inkscape:current-layer="layer1" />
  <defs
     id="defs2">
    <marker
       style="overflow:visible"
       id="DotM"
       refX="0"
       refY="0"
       orient="auto"
       inkscape:stockid="DotM"
       inkscape:isstock="true">
      <path
         transform="matrix(0.4,0,0,0.4,2.96,0.4)"
         style="fill:context-stroke;fill-rule:evenodd;stroke:context-stroke;stroke-width:1pt"
         d="m -2.5,-1 c 0,2.76 -2.24,5 -5,5 -2.76,0 -5,-2.24 -5,-5 0,-2.76 2.24,-5 5,-5 2.76,0 5,2.24 5,5 z"
         id="path4093" />
    </marker>
  </defs>
  <g
     inkscape:label="Layer 1"
     inkscape:groupmode="layer"
     id="layer1"
     transform="translate(-30.39195,-137.68574)">
    <path
       style="fill:#808080;stroke:#aad400;stroke-width:3.85302;stroke-linecap:round;stroke-linejoin:round;stroke-miterlimit:4;stroke-dasharray:none;stroke-opacity:1"
       d="m 56.613057,168.7236 c 0.286642,20.73951 0.386431,0 0,0 z"
       id="path5925"
       sodipodi:nodetypes="cc" />
    <path
       style="fill:#aad400;stroke:#aad400;stroke-width:3.85302;stroke-linecap:round;stroke-linejoin:round;stroke-miterlimit:4;stroke-dasharray:none;stroke-opacity:1"
       d="m 61.77878,168.64312 c 0,20.7395 0,0 0,0 z"
       id="path5925-5" />
    <g
       id="g1814">
      <path
         id="path846"
         style="fill:#338000;fill-opacity:1;stroke:none;stroke-width:0.663485"
         d="m 59.37571,148.29956 a 11.535389,11.535389 0 0 0 -11.27218,9.2723 c 1.305806,0.32792 2.694562,0.49036 3.888135,0.20516 -1.172021,2.37065 -5.480671,2.9833 -8.484237,-2.02365 -0.365262,0.62756 0.134176,2.49512 1.098124,4.62866 -2.885699,0.22681 -5.374348,-0.86765 -5.374348,-0.86765 -7.41e-4,3.69014 12.147241,13.37283 19.086691,13.37283 6.939439,0 12.565123,-5.24918 12.565123,-11.72435 0,-0.11735 -0.0057,-0.23578 -0.01654,-0.3545 a 11.535389,11.535389 0 0 0 0.04444,-0.97358 11.535389,11.535389 0 0 0 -11.535214,-11.53522 z" />
      <path
         id="path846-3"
         style="fill:#338000;fill-opacity:1;stroke:none;stroke-width:0.663485"
         d="m 59.37571,148.29956 a 11.535389,11.535389 0 0 0 -11.27218,9.2723 c 1.305806,0.32792 2.694562,0.49036 3.888135,0.20516 -1.172021,2.37065 -5.480671,2.9833 -8.484237,-2.02365 -0.365262,0.62756 0.134176,2.49512 1.098124,4.62866 -2.885699,0.22681 -5.374348,-0.86765 -5.374348,-0.86765 -7.41e-4,3.69014 12.147241,13.37283 19.086691,13.37283 6.939439,0 12.565123,-5.24918 12.565123,-11.72435 0,-0.11735 -0.0057,-0.23578 -0.01654,-0.3545 a 11.535389,11.535389 0 0 0 0.04444,-0.97358 11.535389,11.535389 0 0 0 -11.535214,-11.53522 z" />
      <path
         id="path5810"
         style="fill:#aad400;fill-opacity:1;stroke:none;stroke-width:1.3692;stroke-linecap:round;stroke-miterlimit:4;stroke-dasharray:none;stroke-opacity:1"
         inkscape:transform-center-x="-0.034597468"
         inkscape:transform-center-y="1.6432776"
         d="m 67.53025,151.69884 a 11.535389,11.535389 0 0 1 3.144512,5.83943 l 1.455208,-2.46134 1.956986,-3.3104 -3.845759,-0.0398 z" />
      <circle
         style="fill:#222b00;fill-opacity:1;stroke:#219300;stroke-width:1.06158;stroke-linecap:round;stroke-miterlimit:4;stroke-dasharray:none;stroke-opacity:1"
         id="path4532"
         cx="63.423428"
         cy="155.43912"
         r="3.3658857" />
      <circle
         style="fill:#f9f9f9;fill-opacity:1;stroke:none;stroke-width:1.03396;stroke-linecap:round;stroke-miterlimit:4;stroke-dasharray:none;stroke-opacity:1"
         id="path5662"
         cx="63.915703"
         cy="153.56187"
         r="0.67920369" />
      <path
         id="path846-3-6-7"
         style="fill:#333333;fill-opacity:1;stroke:none;stroke-width:0.374675"
         d="m 43.507303,155.75333 c 0,0 5.05506,2.84327 8.484217,2.02388 -1.172021,2.37065 -5.480651,2.98307 -8.484217,-2.02388 z"
         sodipodi:nodetypes="ccc" />
    </g>
  </g>
</svg>
